<svg xmlns="http://www.w3.org/2000/svg" xmlns:xlink="http://www.w3.org/1999/xlink" viewBox="0 0 251 240" xmlns:v="https://vecta.io/nano"><defs><path id="A" d="M0 0h251v240H0z"/><mask id="B" x="0" y="0" width="251" height="240" fill="#fff"><use xlink:href="#A"/></mask><path id="C" d="M60.584.747H.834v47.286h59.75V.747z"/></defs><g fill="none" fill-rule="evenodd"><use stroke="#dcc27b" mask="url(#B)" stroke-width="18" fill="#d5ae43" xlink:href="#A"/><path fill="#bfbebe" d="M202.432 140.919l-5.983-16.711-5.35 5.369-9.571-12.905-4.112 8.115-4.148 4.846 8.85 13.097 20.315-1.517-.3-.308z"/><path d="M204.684 139.559l-.9-2.487 1.406-2.152h3.639l-4.146 4.639zm-21.552 1.345l-2.153-2.321 5.018-10.482 6.355 6.46 3.654-8.577 5.399 14.92h-18.273zm-7.477-13.616l4.572.043 1.694-7.972 1.778 5.345-5.309 11.086-2.698-2.912-.037-5.59zm17.753-14.665l.779-8.344 5.18 6.054 1.776 13.253 5.754 2.244-4.621 7.072-6.002-16.585-5.104 11.984-3.544-3.601 5.782-12.078zm14.104 18.746l4.742-7.259-7.882-3.073-1.637-12.218-11.297-13.202-1.497 16.042-4.042 8.446-4.734-14.23-3.798 17.879-5.276-.049.069 10.581 9.429 10.171h23.471l11.698-13.087h-9.247z" fill="#221e1f"/><g transform="translate(97.803 31.301)"><path d="M51.794 32.127l-6.974.07 8.789-9.71zm-2.198 13.066l-18.358.285L43.05 33.34zM10.068 33.769l6.974.071-5.123 10.925zm9.002-.464l11.598 9.863-.498-27.749z" fill="#bfbebe"/><g transform="translate(.753)"><mask id="D" fill="#fff"><use xlink:href="#C"/></mask><path d="M15.3 31.104h-5.139l-.707-6.549 5.846 6.549zm13.261-12.036V40.82l-7.841-8.783 7.841-12.97zm3.415 21.947V19.167l7.973 13.44-7.973 8.407zm18.994-9.911h-4.879l5.965-6.29-1.086 6.29zm-3.9 13.502H33.285l8.479-8.94 5.305 8.94zm-2.003-10.075h5.311l-1.199 6.933-4.112-6.933zM13.122 44.605l5.747-9.506 8.487 9.506H13.122zm-1.879-3.499l-.711-6.575h4.685l-3.974 6.575zm-2.687 6.927H51.51l4.784-27.686 4.289-2.654-5.255-10.255-5.313 10.195 2.593 1.628-10.215 10.769-9.636-16.241 3.304-2.044L30.258.747l-5.87 10.926 3.368 2.116-9.418 15.581-9.184-10.287 2.247-1.391L6.145 7.437.834 17.632l4.759 2.989 2.963 27.411z" fill="#221e1f" mask="url(#D)"/></g></g><path fill="#bfbebe" d="M43.831 108.341l3.415 15.423 7.258 9.425 13.235 4.713 10.749-4.464 2.165-7.104-3.095-4.283-11.527.428-9.393-2.142z"/><path d="M83.144 118.534l-1.751 4.738-8.493-3.213 4.94-5.671 3.514-.48 2.089 3.145 1.283.454-1.582 1.027zm-12.923 22.344l-8.52 1.699-5.64-8.035 10.038 5.755 7.262-2.571-3.141 3.152zm-32.58-7.26l10.14.534 2.512-1.885 3.158 4.503-9.134 6.873.346-6.919-7.022-3.106zm8.085-22.231l4.461 4.875-.584 8.208-2.394-4.008-1.483-9.076zm8.835-6.41l6.438 11.095 6.572 5.021-8.33-.003-5.525-6.039.844-10.075zm22.499 27.805l-10.622 3.762-13.71-7.861.637-8.95 4.377 4.783 17.275.006 4.784 1.81-2.741 6.449zm5.951-22.559l-6.9.943-6.352 7.292-6.15-4.7-11.544-19.891-1.49 17.754-10.071-11.007 3.44 21.05 4.572 7.657-1.877 1.408-19.809.066 14.313 7.901-.602 12.074 14.779-11.122 4.888 6.724 11.695-2.333 8.675-8.705 5.374-14.538 6.463-4.198-6.761-2.396-2.643-3.977z" fill="#221e1f"/><path d="M101.716 182.312l5.55-.284-4.127 18.992-2.42 2.284zm55.93 20.993l-.996-20.992-5.55-.284zm-53.682-1.908l-4.632 6.765 28.27-.389-9.02-7.417-9.43 3.95m45.412-2.909l4.631 6.765-28.27-.389 9.021-7.417 9.429 3.95z" fill="#bfbebe"/><path d="M105.93 183.302l-3.562 17.379-1.088 1.469 2.532-18.738 2.118-.111zm6.77-1.731l9.926-2.55 4.891 2.356v21.11l-8.888-3.987-8.151 2.31-4.531-.581 3.971-19.371 2.781.713zm18.317-.194l4.89-2.356 9.926 2.55 2.863-.757 4.773 19.375-5.38.632-8.184-2.321-8.889 3.987v-21.11zm23.704 2.035l2.269 16.785-4.159-16.884 1.89.099zm-.026 19.993l1.516 2.697-22.395-1.117 6.184-2.774 7.91 2.216 6.786-1.022zm-50.087-.007l5.983 1.041 7.942-2.228 6.184 2.774-22.099 1.103 1.99-2.69zm53.117-23.261l-5.751-.3-1.04-4.221-5.443 2.216-9.802-2.509-6.422 3.095-6.424-3.095-9.802 2.509-5.525-2.262-.874 4.262-5.834.305-4.01 29.672 32.469-1.619 32.47 1.619-4.011-29.672z" fill="#221e1f"/><g stroke="#221f20" stroke-width="2.5"><path d="M196.26 63.667L66.066 194.311"/><path d="M63.316 63.667l130.193 130.644"/></g></g></svg>